<svg width="58" height="58" viewBox="0 0 58 58" fill="none" xmlns="http://www.w3.org/2000/svg">
<g clip-path="url(#clip0_1110_779)">
<path d="M24.2337 20.5694C23.4921 20.1767 22.8813 20.5476 22.8813 21.3982V36.4272C22.8813 37.2561 23.4703 37.6051 24.1901 37.1688L37.9539 29.1418C38.6738 28.7273 38.6519 28.0729 37.9103 27.6803L24.2337 20.5694Z" stroke="white" stroke-width="2.47326" stroke-miterlimit="10" stroke-linecap="round"/>
<path d="M28.9016 45.8503C38.262 45.8503 45.8501 38.2622 45.8501 28.9018C45.8501 19.5415 38.262 11.9534 28.9016 11.9534C19.5412 11.9534 11.9531 19.5415 11.9531 28.9018C11.9531 38.2622 19.5412 45.8503 28.9016 45.8503Z" stroke="white" stroke-width="2.47326" stroke-miterlimit="10" stroke-linecap="round"/>
<path d="M10.5572 7.6344C9.77194 7.6344 9.00849 7.93978 8.41955 8.52872C7.24166 9.70661 7.24166 11.6479 8.41955 12.8258C9.00849 13.4148 9.79375 13.7201 10.5572 13.7201C11.3206 13.7201 12.1059 13.4148 12.6948 12.8258C13.8727 11.6479 13.8727 9.70661 12.6948 8.52872C12.1059 7.91796 11.3425 7.6344 10.5572 7.6344Z" fill="#FFFEF7"/>
<path d="M15.5962 7.22002C15.5962 7.22002 18.3664 5.19144 22.6417 4.29712" stroke="#FFFEF7" stroke-width="2.47326" stroke-miterlimit="10" stroke-linecap="round"/>
<path d="M30.9738 0.894321C30.4285 0.349003 29.665 0 28.8362 0C27.1566 0 25.8042 1.35239 25.8042 3.03197C25.8042 3.86085 26.1532 4.6243 26.6985 5.16961C27.2438 5.71493 28.0073 6.06393 28.8362 6.06393C30.5157 6.06393 31.8681 4.71155 31.8681 3.03197C31.8681 2.20308 31.5191 1.43964 30.9738 0.894321Z" fill="#FFFEF7"/>
<path d="M34.835 4.16626C34.835 4.16626 38.2377 4.68977 41.8805 7.06735" stroke="#FFFEF7" stroke-width="2.47326" stroke-miterlimit="10" stroke-linecap="round"/>
<path d="M50.1692 10.5573C50.1692 9.77206 49.8639 9.00861 49.2749 8.41967C48.097 7.24178 46.1557 7.24178 44.9778 8.41967C44.3889 9.00861 44.0835 9.79387 44.0835 10.5573C44.0835 11.3208 44.3889 12.106 44.9778 12.695C46.1557 13.8728 48.097 13.8728 49.2749 12.695C49.8639 12.106 50.1692 11.3426 50.1692 10.5573Z" fill="#FFFEF7"/>
<path d="M50.5835 15.5961C50.5835 15.5961 52.6121 18.3663 53.5064 22.6416" stroke="#FFFEF7" stroke-width="2.47326" stroke-miterlimit="10" stroke-linecap="round"/>
<path d="M56.9094 30.9741C57.4547 30.4287 57.8037 29.6653 57.8037 28.8364C57.8037 27.1568 56.4513 25.8044 54.7717 25.8044C53.9428 25.8044 53.1794 26.1534 52.6341 26.6988C52.0888 27.2441 51.7397 28.0075 51.7397 28.8364C51.7397 30.516 53.0921 31.8684 54.7717 31.8684C55.6006 31.8684 56.364 31.5194 56.9094 30.9741Z" fill="#FFFEF7"/>
<path d="M53.6374 34.8348C53.6374 34.8348 53.1139 38.2376 50.7363 41.8803" stroke="#FFFEF7" stroke-width="2.47326" stroke-miterlimit="10" stroke-linecap="round"/>
<path d="M47.3336 50.4091C48.1188 50.4091 48.8823 50.1037 49.4712 49.5148C50.6491 48.3369 50.6491 46.3956 49.4712 45.2177C48.8823 44.6287 48.097 44.3234 47.3336 44.3234C46.5701 44.3234 45.7849 44.6287 45.1959 45.2177C44.018 46.3956 44.018 48.3369 45.1959 49.5148C45.7849 50.1037 46.5701 50.4091 47.3336 50.4091Z" fill="#FFFEF7"/>
<path d="M42.295 50.8236C42.295 50.8236 39.5248 52.8522 35.2495 53.7465" stroke="#FFFEF7" stroke-width="2.47326" stroke-miterlimit="10" stroke-linecap="round"/>
<path d="M26.8294 57.1058C27.3747 57.6511 28.1381 58.0001 28.967 58.0001C30.6466 58.0001 31.999 56.6477 31.999 54.9681C31.999 54.1392 31.65 53.3758 31.1047 52.8305C30.5594 52.2852 29.7959 51.9362 28.967 51.9362C27.2874 51.9362 25.9351 53.2885 25.9351 54.9681C25.9351 55.797 26.2841 56.5604 26.8294 57.1058Z" fill="#FFFEF7"/>
<path d="M22.9688 53.8338C22.9688 53.8338 19.5661 53.3103 15.9233 50.9327" stroke="#FFFEF7" stroke-width="2.47326" stroke-miterlimit="10" stroke-linecap="round"/>
<path d="M7.35107 47.2463C7.35107 48.0315 7.65645 48.795 8.2454 49.3839C9.42328 50.5618 11.3646 50.5618 12.5425 49.3839C13.1314 48.795 13.4368 48.0097 13.4368 47.2463C13.4368 46.4828 13.1314 45.6976 12.5425 45.1086C11.3646 43.9307 9.42328 43.9307 8.2454 45.1086C7.63464 45.6976 7.35107 46.461 7.35107 47.2463Z" fill="#FFFEF7"/>
<path d="M6.9146 42.2076C6.9146 42.2076 4.88602 39.4374 3.9917 35.1621" stroke="#FFFEF7" stroke-width="2.47326" stroke-miterlimit="10" stroke-linecap="round"/>
<path d="M0.894321 26.8296C0.349003 27.3749 0 28.1384 0 28.9673C0 30.6468 1.35239 31.9992 3.03197 31.9992C3.86085 31.9992 4.6243 31.6502 5.16961 31.1049C5.71493 30.5596 6.06393 29.7962 6.06393 28.9673C6.06393 27.2877 4.71155 25.9353 3.03197 25.9353C2.20308 25.9353 1.43964 26.2843 0.894321 26.8296Z" fill="#FFFEF7"/>
<path d="M4.16602 22.9687C4.16602 22.9687 4.68952 19.5659 7.06711 15.9232" stroke="#FFFEF7" stroke-width="2.47326" stroke-miterlimit="10" stroke-linecap="round"/>
</g>
<defs>
<clipPath id="clip0_1110_779">
<rect width="57.8037" height="58" fill="white"/>
</clipPath>
</defs>
</svg>
